<svg xmlns="http://www.w3.org/2000/svg" viewBox="0 0 888.9 162"><defs><style>.cls-1{fill:none;}.cls-2,.cls-5{fill:#1a1b1d;}.cls-3{fill:#ed2149;}.cls-4{fill:#34c6f4;}.cls-5{font-size:52.02px;font-family:EthnocentricRg-Regular, Ethnocentric;}.cls-6{font-size:84.11px;}.cls-7{letter-spacing:-0.02em;}.cls-8{letter-spacing:0em;}</style></defs><g id="Layer_2" data-name="Layer 2"><g id="Layer_1-2" data-name="Layer 1"><path class="cls-1" d="M57.37,112.38c-5.43,4.14-12,4.45-18.41,5-5.81-.5-11.63-.89-16.78-4-5.49-3.28-5.83-7.83-1-12.06,3.95-3.46,8.57-3.22,13.19-2.2a164.15,164.15,0,0,1,22.27,7C61,107.73,61.25,109.43,57.37,112.38Z"/><path class="cls-1" d="M69.79,0V20.32A109.7,109.7,0,0,0,57,21.48c-12.46,1.8-22.66-1.79-30.27-12.07-.79-1.06-1.39-3.66-3.53-1.14-6.77,8-12.51,16.43-13.69,27.17a33.86,33.86,0,0,0,4.15,20c-3.33.94-4.89-1.67-7.2-3.18-1.4,5-1.43,9.8-1.66,14.56a125.9,125.9,0,0,0,0,13.46c.13,2-1.61,5.09,1.36,6,3.64,1.16,8-1.89,8.8-5.5,1-4.37,1.66-8.84,4.12-12.73,5.23-8.25,15-12,25.84-9.93a59,59,0,0,1,19.47,7.46,9.21,9.21,0,0,0,5.4,1.65V86.59c-20.25-.14-40.45.53-60.52,3.6-3.76.57-4.91,2-4.8,5.72.29,9.3.43,18.64,0,27.93-.24,4.67,1.76,5.9,5.69,6.72a81.62,81.62,0,0,0,53.08-6.25A12,12,0,0,1,69.79,123v39H0V0Z"/><path class="cls-2" d="M64.39,65.61a59,59,0,0,0-19.47-7.46c-10.84-2.07-20.61,1.68-25.84,9.93C16.62,72,15.93,76.44,15,80.81c-.8,3.61-5.16,6.66-8.8,5.5-3-1-1.23-4-1.36-6a125.9,125.9,0,0,1,0-13.46c.23-4.76.26-9.57,1.66-14.56,2.31,1.51,3.87,4.12,7.2,3.18a33.86,33.86,0,0,1-4.15-20C10.69,24.7,16.43,16.22,23.2,8.27c2.14-2.52,2.74.08,3.53,1.14C34.34,19.69,44.54,23.28,57,21.48a109.7,109.7,0,0,1,12.79-1.16V67.26A9.21,9.21,0,0,1,64.39,65.61Z"/><path class="cls-3" d="M70,122.58V86.75c-20.25-.14-40.45.53-60.53,3.59-4.66.72-5.3,2.66-4.51,8.87a86.25,86.25,0,0,1-.15,23c-.86,6.18,1.13,7.61,5.52,8.52,18.42,3.82,35.16-.79,53.08-6.24,2.3-.7,4.34-.77,6-1.16A.75.75,0,0,0,70,122.58Zm-12.42-10c-6,4.54-12,4.44-18.41,5-5.81-.49-11.63-.89-16.79-4-5.48-3.28-5.82-7.84-1-12.06,3.94-3.46,8.57-3.22,13.19-2.21a166.43,166.43,0,0,1,22.26,7C61.19,107.89,61.43,109.58,57.56,112.54Z"/><path class="cls-2" d="M75.92,67.27A8.33,8.33,0,0,0,80,65.73a54.51,54.51,0,0,1,15.56-6.64c15.1-4.27,30.82.19,34.84,20.37.36,1.82.11,3.77,2.85,4.59,7.87,2.34,7.53,2.5,7.9-5.7.52-11.78-1.81-22.15-13.26-29,3.48-1,5.72.65,8.78.83A39.81,39.81,0,0,0,124.59,34c-12.22-9.94-26.76-12.89-42-13.66-2.23-.12-4.47-.13-6.69-.06V67.26Z"/><path class="cls-4" d="M141.25,98.39c0-7.54,0-7.5-7.29-8.63C116.8,87.1,99.51,86.53,82.18,86.6c-1.5,0-3,0-4.5,0H75.92v35.88a.56.56,0,0,0,.5.56,26.14,26.14,0,0,1,4.51,1.41c20.74,7.18,36.37,8.7,54.92,4.5,3.54-.81,5.39-.19,5.49-4.61C141.54,115.69,141.25,107,141.25,98.39Zm-18.88,15.24c-5.22,3-11.06,3.36-17.05,3.86-6.45-.69-13.22-1-18.62-5.57-2.36-2-3.61-4.06.71-5.66A182.11,182.11,0,0,1,110.71,99c4.28-.94,8.61-1.12,12.41,1.84C128.37,104.91,128.09,110.33,122.37,113.63Z"/><text class="cls-5" transform="translate(167.71 63.69)">SUPER<tspan class="cls-6"><tspan x="0" y="65.06">MILES B</tspan><tspan class="cls-7" x="466.83" y="65.06">R</tspan><tspan class="cls-8" x="550.86" y="65.06">OS</tspan></tspan></text></g></g></svg>