<svg xmlns="http://www.w3.org/2000/svg" viewBox="0 0 884.49 142.99"><defs><style>.cls-1,.cls-4{fill:#fff;}.cls-2{fill:#ed2149;}.cls-3{fill:#34c6f4;}.cls-4{font-size:52.02px;font-family:EthnocentricRg-Regular, Ethnocentric;}.cls-5{font-size:84.11px;}.cls-6{letter-spacing:-0.02em;}.cls-7{letter-spacing:0em;}</style></defs><g id="Layer_2" data-name="Layer 2"><g id="Layer_1-2" data-name="Layer 1"><path class="cls-1" d="M60,58.4A59.08,59.08,0,0,0,40.51,51c-10.84-2.07-20.61,1.68-25.84,9.93-2.46,3.88-3.15,8.35-4.12,12.73-.8,3.61-5.16,6.66-8.8,5.49-3-.95-1.23-4-1.36-6a123.34,123.34,0,0,1,0-13.46C.62,54.85.65,50,2.05,45.05c2.31,1.51,3.87,4.12,7.2,3.18a33.88,33.88,0,0,1-4.15-20C6.28,17.5,12,9,18.79,1.06c2.14-2.51,2.74.09,3.53,1.15,7.61,10.27,17.81,13.87,30.27,12.06a114.45,114.45,0,0,1,12.79-1.16v47A9.24,9.24,0,0,1,60,58.4Z"/><polygon class="cls-1" points="59.73 107.74 37.48 115.17 14.09 113.92 9.73 102.38 11.98 92.93 25.73 87.92 51.98 89.42 59.73 107.74"/><path class="cls-2" d="M65.57,115.38V79.54c-20.25-.13-40.45.54-60.52,3.6C.38,83.85-.26,85.79.54,92a86.67,86.67,0,0,1-.16,23c-.86,6.18,1.13,7.61,5.52,8.52,18.42,3.82,35.16-.79,53.08-6.25,2.3-.69,4.34-.76,6-1.15A.75.75,0,0,0,65.57,115.38Zm-12.42-10c-5.95,4.54-12,4.45-18.41,5-5.81-.5-11.63-.89-16.78-4-5.49-3.28-5.83-7.84-1-12.07,3.94-3.45,8.57-3.21,13.19-2.2a165.57,165.57,0,0,1,22.27,7C56.78,100.68,57,102.38,53.15,105.33Z"/><path class="cls-1" d="M71.51,60.07a8.35,8.35,0,0,0,4.11-1.55,54.77,54.77,0,0,1,15.56-6.63c15.1-4.27,30.82.19,34.84,20.36.36,1.82.11,3.77,2.85,4.59,7.87,2.35,7.53,2.51,7.9-5.69.52-11.79-1.81-22.16-13.26-29,3.49-1,5.72.65,8.78.82a39.94,39.94,0,0,0-12.11-16.17C108,16.9,93.42,14,78.2,13.17c-2.23-.11-4.46-.12-6.69-.05V60.06Z"/><polygon class="cls-1" points="76.82 95.36 99.07 87.92 122.46 89.17 126.82 100.71 124.57 110.16 110.82 115.17 84.57 113.67 76.82 95.36"/><path class="cls-3" d="M136.84,91.18c0-7.53,0-7.49-7.29-8.62C112.39,79.9,95.1,79.33,77.77,79.4H71.51v35.87a.57.57,0,0,0,.5.57,25.3,25.3,0,0,1,4.51,1.41c20.74,7.18,36.37,8.7,54.92,4.49,3.54-.8,5.4-.19,5.5-4.61C137.13,108.48,136.84,99.83,136.84,91.18ZM118,106.42c-5.21,3-11.06,3.37-17,3.87-6.46-.7-13.22-1-18.63-5.57-2.36-2-3.61-4.07.72-5.66a178,178,0,0,1,23.3-7.27c4.27-.94,8.6-1.12,12.4,1.84C124,97.71,123.68,103.13,118,106.42Z"/><text class="cls-4" transform="translate(163.3 56.48)">SUPER<tspan class="cls-5"><tspan x="0" y="65.06">MILES B</tspan><tspan class="cls-6" x="466.83" y="65.06">R</tspan><tspan class="cls-7" x="550.86" y="65.06">OS</tspan></tspan></text></g></g></svg>